# xmcd
#
# Track frame offsets: 
#        150
#        16833
#        32598
#        54797
#        74459
#        93827
#        108517
#        126203
#        146848
#        169794
#        189473
#        210897
#        228251
#        244153
#        263076
#        284477
#        309522
#        328588
#
# Disc length: 4627 seconds
#
# Revision: 3
# Processed by: cddbd v1.5.2PL0 Copyright (c) Steve Scherf et al.
# Submitted via: ExactAudioCopyFreeDBPlugin 1.0
#
DISCID=f5121112
DTITLE=Santana - Ultimate Santana
DYEAR=2007
DGENRE=Rock
TTITLE0=Into The Night (featuring Chad Kroeger)
TTITLE1=This Boy's Fire (featuring Jennifer Lopez and Baby Bash)
TTITLE2=Smooth (featuring Rob Thomas)
TTITLE3=Maria Maria (featuring The Product G&B)
TTITLE4=Oye Como Va
TTITLE5=Black Magic Woman
TTITLE6=Evil Ways
TTITLE7=Corazon Espinado (featuring Maná)
TTITLE8=Europa (Earth's Cry Heaven's Smile)
TTITLE9=The Game Of Love (featuring Tina Turner)
TTITLE10=Put Your Lights On (featuring Everlast)
TTITLE11=Why Don't You and I (feat. Alex Band of The Calling)
TTITLE12=Everybody's Everything
TTITLE13=Just Feel Better (featuring Steven Tyler)
TTITLE14=Samba Pa Ti
TTITLE15=No One To Depend On
TTITLE16=The Game Of Love (featuring Michelle Branch)
TTITLE17=Interplanetary Party
EXTD=YEAR: 2007
EXTT0=
EXTT1=
EXTT2=
EXTT3=
EXTT4=
EXTT5=
EXTT6=
EXTT7=
EXTT8=
EXTT9=
EXTT10=
EXTT11=
EXTT12=
EXTT13=
EXTT14=
EXTT15=
EXTT16=
EXTT17=
PLAYORDER=
